<svg width="15" height="15" viewBox="0 0 15 15" fill="none" xmlns="http://www.w3.org/2000/svg">
<g id="mingcute:github-fill">
<g clip-path="url(#clip0_309310_93)">
<rect width="15" height="15" rx="1.25" fill="black"/>
<g id="Group">
<path id="Vector" d="M4.82644 2.18555C5.2489 2.32866 5.6508 2.52649 6.02188 2.77399C6.54596 2.64005 7.08483 2.57276 7.62575 2.57372C8.18437 2.57372 8.72331 2.64348 9.22849 2.77343C9.59942 2.52617 10.0011 2.32853 10.4234 2.18555C10.8155 2.05223 11.3741 1.8362 11.706 2.20356C11.931 2.45333 11.9873 2.87188 12.0272 3.19141C12.0722 3.54808 12.0829 4.01276 11.9648 4.47406C12.4165 5.05743 12.6888 5.75332 12.6888 6.51166C12.6888 7.66041 12.0666 8.65783 11.1457 9.34866C10.7025 9.67693 10.2109 9.93428 9.68866 10.1115C9.80905 10.3871 9.876 10.6921 9.876 11.0122V12.6998C9.876 12.849 9.81673 12.9921 9.71123 13.0976C9.60572 13.2031 9.46263 13.2624 9.31343 13.2624H5.93806C5.78886 13.2624 5.64577 13.2031 5.54027 13.0976C5.43477 12.9921 5.3755 12.849 5.3755 12.6998V12.1423C4.83825 12.2082 4.38764 12.1497 4.00454 11.9871C3.60399 11.8172 3.32496 11.5539 3.11513 11.3019C2.91598 11.0633 2.69883 10.5255 2.38492 10.4209C2.31481 10.3976 2.24999 10.3606 2.19415 10.3122C2.13831 10.2638 2.09255 10.2049 2.05948 10.1388C1.9927 10.0054 1.98167 9.85085 2.02882 9.70926C2.07597 9.56767 2.17743 9.4506 2.31089 9.38382C2.44435 9.31704 2.59887 9.30601 2.74046 9.35316C3.11513 9.47804 3.35928 9.74807 3.52636 9.96522C3.79639 10.314 4.01579 10.7697 4.44334 10.9514C4.61942 11.0262 4.87763 11.0752 5.28155 11.02L5.3755 11.0009C5.37657 10.6948 5.44033 10.3921 5.56283 10.1115C5.04054 9.93429 4.54899 9.67694 4.1058 9.34866C3.18488 8.65783 2.56269 7.66097 2.56269 6.51166C2.56269 5.75445 2.83441 5.05912 3.28502 4.47631C3.16688 4.01501 3.17701 3.5492 3.22201 3.19198L3.22483 3.1706C3.26589 2.84319 3.31371 2.45783 3.54324 2.20356C3.87515 1.8362 4.43433 2.05279 4.82588 2.18612" fill="#166F58"/>
</g>
</g>
</g>
<defs>
<clipPath id="clip0_309310_93">
<rect width="15" height="15" rx="1.25" fill="white"/>
</clipPath>
</defs>
</svg>
