<svg width="15" height="16" viewBox="0 0 15 16" fill="none" xmlns="http://www.w3.org/2000/svg">
<g id="linkedin-svgrepo-com 1">
<g id="Group">
<g id="Group_2">
<path id="Vector" d="M12 0.81311H3.00379C0.934001 0.81311 0 1.92802 0 4.00002V13C0 15.0579 0.930214 15.8012 3 15.8012H12C14.0698 15.8012 15 15.0161 15 12.9463V4.00002C14.9881 1.93024 14.0698 0.81311 12 0.81311ZM4.99603 12.9463H2.85488V6.76077H4.99603V12.9463ZM3.91356 5.80915C3.3069 5.80915 2.81919 5.32144 2.81919 4.71478C2.81919 4.10811 3.3069 3.62041 3.91356 3.62041C4.52022 3.62041 5.00793 4.10811 5.00793 4.71478C4.99603 5.32144 4.50833 5.80915 3.91356 5.80915ZM12.1451 12.9463H12.1332H10.3489V9.94872C10.3489 9.2231 10.2538 8.29527 9.26645 8.29527C8.25535 8.29527 8.08882 9.08036 8.08882 9.90114V12.9463H6.30452V6.76077H7.96986V7.59344H8.01745C8.27914 7.11763 8.8858 6.74888 9.83743 6.74888C11.8002 6.74888 12.1451 7.87893 12.1451 9.55617V12.9463Z" fill="black"/>
</g>
</g>
</g>
</svg>
