<svg width="15" height="15" viewBox="0 0 15 15" fill="none" xmlns="http://www.w3.org/2000/svg">
<rect width="15" height="15" rx="2" fill="black"/>
<path d="M7.5 2.125C6.29319 2.125 5.13581 2.60439 4.28247 3.45773C3.42912 4.31107 2.94971 5.46845 2.94971 6.67526C2.94971 9.1883 6.36243 12.875 7.5 12.875C8.63758 12.875 12.0503 9.1883 12.0503 6.67526C12.0503 5.46845 11.5709 4.31107 10.7175 3.45773C9.86419 2.60439 8.70681 2.125 7.5 2.125ZM7.5 8.75C7.10444 8.75 6.71776 8.6327 6.38886 8.41294C6.05996 8.19318 5.80362 7.88082 5.65224 7.51537C5.50087 7.14991 5.46126 6.74778 5.53843 6.35982C5.6156 5.97186 5.80608 5.61549 6.08579 5.33579C6.36549 5.05608 6.72186 4.8656 7.10982 4.78843C7.49778 4.71126 7.89992 4.75087 8.26537 4.90224C8.63082 5.05362 8.94318 5.30996 9.16294 5.63886C9.3827 5.96776 9.5 6.35444 9.5 6.75C9.49999 7.28043 9.28927 7.78913 8.9142 8.1642C8.53913 8.53927 8.03043 8.74999 7.5 8.75Z" fill="#166F58"/>
</svg>
