<svg width="15" height="15" viewBox="0 0 15 15" fill="none" xmlns="http://www.w3.org/2000/svg">
<rect width="15" height="15" rx="2" fill="black"/>
<path d="M9.70779 1.5H5.29221C4.86364 1.5 4.5 1.84069 4.5 2.26972V12.7303C4.5 13.1467 4.85065 13.5 5.29221 13.5H9.70779C10.1364 13.5 10.5 13.1593 10.5 12.7303V2.26972C10.5 1.84069 10.1494 1.5 9.70779 1.5ZM6.70779 2.19401H8.27922C8.33117 2.19401 8.37013 2.24448 8.37013 2.28233C8.37013 2.33281 8.31818 2.37066 8.27922 2.37066H6.70779C6.65584 2.37066 6.61688 2.32019 6.61688 2.28233C6.61688 2.23186 6.66883 2.19401 6.70779 2.19401ZM7.5 13.1845C7.22727 13.1845 7.00649 12.9574 7.00649 12.705C7.00649 12.4527 7.24026 12.2256 7.5 12.2256C7.75974 12.2256 7.99351 12.4527 7.99351 12.705C7.99351 12.9574 7.77273 13.1845 7.5 13.1845ZM10.1104 11.847C10.1104 11.8975 10.0844 11.9227 10.0325 11.9227H4.96753C4.91558 11.9227 4.88961 11.8975 4.88961 11.847V3.00158C4.88961 2.9511 4.91558 2.92587 4.96753 2.92587H10.0584C10.1104 2.92587 10.1364 2.9511 10.1364 3.00158V11.847H10.1104Z" fill="#166F58"/>
</svg>
