<svg width="15" height="15" viewBox="0 0 15 15" fill="none" xmlns="http://www.w3.org/2000/svg">
<g id="telegram 1" clip-path="url(#clip0_309310_81)">
<g id="g3885">
<path id="rect2987" d="M13.125 0H1.875C0.839466 0 0 0.839466 0 1.875V13.125C0 14.1605 0.839466 15 1.875 15H13.125C14.1605 15 15 14.1605 15 13.125V1.875C15 0.839466 14.1605 0 13.125 0Z" fill="black"/>
<path id="path9" d="M12.4541 2.75969L2.30722 6.67338C1.61468 6.95124 1.61879 7.33751 2.18099 7.50975L4.71166 8.29962L5.67995 11.2683C5.79767 11.5933 5.73964 11.7221 6.08084 11.7221C6.34416 11.7221 6.46097 11.6021 6.60763 11.4588C6.70089 11.3676 7.25461 10.8292 7.87289 10.2281L10.5053 12.173C10.9896 12.4402 11.3394 12.3018 11.46 11.7231L13.188 3.58035C13.3649 2.87108 12.9176 2.54936 12.4541 2.75969ZM5.10882 8.11815L10.813 4.51937C11.0977 4.34668 11.3588 4.43952 11.1444 4.62981L6.26021 9.03663L6.07003 11.065L5.10882 8.11815Z" fill="#166F58"/>
</g>
</g>
<defs>
<clipPath id="clip0_309310_81">
<rect width="15" height="15" fill="white"/>
</clipPath>
</defs>
</svg>
